<mxfile host="app.diagrams.net" modified="2024-06-06T15:09:04.662Z" agent="Mozilla/5.0 (Windows NT 10.0; Win64; x64) AppleWebKit/537.36 (KHTML, like Gecko) Chrome/122.0.0.0 YaBrowser/24.4.0.0 Safari/537.36" etag="e0G6WrQ2BjvYsulX5hPd" version="24.4.13" type="device">
  <diagram id="R2lEEEUBdFMjLlhIrx00" name="Page-1">
    <mxGraphModel dx="1800" dy="951" grid="1" gridSize="10" guides="1" tooltips="1" connect="1" arrows="1" fold="1" page="1" pageScale="1" pageWidth="850" pageHeight="1100" math="0" shadow="0" extFonts="Permanent Marker^https://fonts.googleapis.com/css?family=Permanent+Marker">
      <root>
        <mxCell id="0" />
        <mxCell id="1" parent="0" />
        <mxCell id="k6b2F2ODSMGAhE13cN2x-1" style="edgeStyle=orthogonalEdgeStyle;rounded=0;orthogonalLoop=1;jettySize=auto;html=1;entryX=0;entryY=0.5;entryDx=0;entryDy=0;dashed=1;dashPattern=8 8;endArrow=block;endFill=0;" edge="1" parent="1" source="k6b2F2ODSMGAhE13cN2x-4" target="k6b2F2ODSMGAhE13cN2x-56">
          <mxGeometry relative="1" as="geometry" />
        </mxCell>
        <mxCell id="k6b2F2ODSMGAhE13cN2x-2" value="include" style="edgeLabel;html=1;align=center;verticalAlign=middle;resizable=0;points=[];" vertex="1" connectable="0" parent="k6b2F2ODSMGAhE13cN2x-1">
          <mxGeometry x="0.4486" y="-1" relative="1" as="geometry">
            <mxPoint x="11" y="-1" as="offset" />
          </mxGeometry>
        </mxCell>
        <mxCell id="k6b2F2ODSMGAhE13cN2x-3" style="rounded=0;orthogonalLoop=1;jettySize=auto;html=1;endArrow=none;endFill=0;entryX=0;entryY=0.5;entryDx=0;entryDy=0;" edge="1" parent="1" source="k6b2F2ODSMGAhE13cN2x-4" target="k6b2F2ODSMGAhE13cN2x-30">
          <mxGeometry relative="1" as="geometry" />
        </mxCell>
        <mxCell id="k6b2F2ODSMGAhE13cN2x-4" value="manager" style="shape=umlActor;verticalLabelPosition=bottom;verticalAlign=top;html=1;outlineConnect=0;" vertex="1" parent="1">
          <mxGeometry x="710" y="725" width="30" height="60" as="geometry" />
        </mxCell>
        <mxCell id="k6b2F2ODSMGAhE13cN2x-5" style="rounded=0;orthogonalLoop=1;jettySize=auto;html=1;" edge="1" parent="1" source="k6b2F2ODSMGAhE13cN2x-8">
          <mxGeometry relative="1" as="geometry">
            <mxPoint x="710" y="810" as="targetPoint" />
          </mxGeometry>
        </mxCell>
        <mxCell id="k6b2F2ODSMGAhE13cN2x-6" style="rounded=0;orthogonalLoop=1;jettySize=auto;html=1;" edge="1" parent="1" source="k6b2F2ODSMGAhE13cN2x-8" target="k6b2F2ODSMGAhE13cN2x-48">
          <mxGeometry relative="1" as="geometry" />
        </mxCell>
        <mxCell id="k6b2F2ODSMGAhE13cN2x-7" style="edgeStyle=orthogonalEdgeStyle;rounded=0;orthogonalLoop=1;jettySize=auto;html=1;entryX=0;entryY=0.5;entryDx=0;entryDy=0;endArrow=none;endFill=0;" edge="1" parent="1" target="k6b2F2ODSMGAhE13cN2x-56">
          <mxGeometry relative="1" as="geometry">
            <mxPoint x="575" y="920" as="sourcePoint" />
            <Array as="points">
              <mxPoint x="575" y="650" />
              <mxPoint x="850" y="650" />
            </Array>
          </mxGeometry>
        </mxCell>
        <mxCell id="k6b2F2ODSMGAhE13cN2x-8" value="Admin" style="shape=umlActor;verticalLabelPosition=bottom;verticalAlign=top;html=1;outlineConnect=0;" vertex="1" parent="1">
          <mxGeometry x="560" y="930" width="30" height="60" as="geometry" />
        </mxCell>
        <mxCell id="k6b2F2ODSMGAhE13cN2x-9" style="edgeStyle=orthogonalEdgeStyle;rounded=0;orthogonalLoop=1;jettySize=auto;html=1;entryX=1;entryY=0.5;entryDx=0;entryDy=0;endArrow=none;endFill=0;" edge="1" parent="1" source="k6b2F2ODSMGAhE13cN2x-12" target="k6b2F2ODSMGAhE13cN2x-27">
          <mxGeometry relative="1" as="geometry" />
        </mxCell>
        <mxCell id="k6b2F2ODSMGAhE13cN2x-10" style="edgeStyle=orthogonalEdgeStyle;rounded=0;orthogonalLoop=1;jettySize=auto;html=1;entryX=1;entryY=0.5;entryDx=0;entryDy=0;endArrow=none;endFill=0;" edge="1" parent="1" source="k6b2F2ODSMGAhE13cN2x-12" target="k6b2F2ODSMGAhE13cN2x-52">
          <mxGeometry relative="1" as="geometry" />
        </mxCell>
        <mxCell id="k6b2F2ODSMGAhE13cN2x-11" style="edgeStyle=orthogonalEdgeStyle;rounded=0;orthogonalLoop=1;jettySize=auto;html=1;entryX=1;entryY=0.5;entryDx=0;entryDy=0;endArrow=none;endFill=0;" edge="1" parent="1" source="k6b2F2ODSMGAhE13cN2x-12" target="k6b2F2ODSMGAhE13cN2x-55">
          <mxGeometry relative="1" as="geometry" />
        </mxCell>
        <mxCell id="k6b2F2ODSMGAhE13cN2x-12" value="Client" style="shape=umlActor;verticalLabelPosition=bottom;verticalAlign=top;html=1;outlineConnect=0;" vertex="1" parent="1">
          <mxGeometry x="1390" y="720" width="30" height="60" as="geometry" />
        </mxCell>
        <mxCell id="k6b2F2ODSMGAhE13cN2x-13" value="Authorization" style="ellipse;whiteSpace=wrap;html=1;" vertex="1" parent="1">
          <mxGeometry x="1030" y="840" width="110" height="50" as="geometry" />
        </mxCell>
        <mxCell id="k6b2F2ODSMGAhE13cN2x-14" style="edgeStyle=orthogonalEdgeStyle;rounded=0;orthogonalLoop=1;jettySize=auto;html=1;endArrow=none;endFill=0;" edge="1" parent="1" source="k6b2F2ODSMGAhE13cN2x-17" target="k6b2F2ODSMGAhE13cN2x-4">
          <mxGeometry relative="1" as="geometry" />
        </mxCell>
        <mxCell id="k6b2F2ODSMGAhE13cN2x-15" style="edgeStyle=orthogonalEdgeStyle;rounded=0;orthogonalLoop=1;jettySize=auto;html=1;dashed=1;dashPattern=8 8;endArrow=block;endFill=0;" edge="1" parent="1" source="k6b2F2ODSMGAhE13cN2x-17">
          <mxGeometry relative="1" as="geometry">
            <mxPoint x="1085" y="840" as="targetPoint" />
            <Array as="points">
              <mxPoint x="1085" y="730" />
            </Array>
          </mxGeometry>
        </mxCell>
        <mxCell id="k6b2F2ODSMGAhE13cN2x-16" value="include" style="edgeLabel;html=1;align=center;verticalAlign=middle;resizable=0;points=[];" vertex="1" connectable="0" parent="k6b2F2ODSMGAhE13cN2x-15">
          <mxGeometry x="-0.3496" y="2" relative="1" as="geometry">
            <mxPoint as="offset" />
          </mxGeometry>
        </mxCell>
        <mxCell id="k6b2F2ODSMGAhE13cN2x-17" value="Create receipt" style="ellipse;whiteSpace=wrap;html=1;" vertex="1" parent="1">
          <mxGeometry x="850" y="710" width="140" height="40" as="geometry" />
        </mxCell>
        <mxCell id="k6b2F2ODSMGAhE13cN2x-18" value="include" style="edgeStyle=orthogonalEdgeStyle;rounded=0;orthogonalLoop=1;jettySize=auto;html=1;dashed=1;dashPattern=8 8;endArrow=block;endFill=0;" edge="1" parent="1" source="k6b2F2ODSMGAhE13cN2x-19" target="k6b2F2ODSMGAhE13cN2x-13">
          <mxGeometry relative="1" as="geometry" />
        </mxCell>
        <mxCell id="k6b2F2ODSMGAhE13cN2x-19" value="modify receipt" style="ellipse;whiteSpace=wrap;html=1;" vertex="1" parent="1">
          <mxGeometry x="850" y="760" width="140" height="40" as="geometry" />
        </mxCell>
        <mxCell id="k6b2F2ODSMGAhE13cN2x-20" style="edgeStyle=orthogonalEdgeStyle;rounded=0;orthogonalLoop=1;jettySize=auto;html=1;endArrow=none;endFill=0;" edge="1" parent="1" source="k6b2F2ODSMGAhE13cN2x-23">
          <mxGeometry relative="1" as="geometry">
            <mxPoint x="590" y="960" as="targetPoint" />
            <Array as="points">
              <mxPoint x="860" y="960" />
              <mxPoint x="860" y="960" />
            </Array>
          </mxGeometry>
        </mxCell>
        <mxCell id="k6b2F2ODSMGAhE13cN2x-21" style="edgeStyle=orthogonalEdgeStyle;rounded=0;orthogonalLoop=1;jettySize=auto;html=1;dashed=1;dashPattern=8 8;endArrow=block;endFill=0;" edge="1" parent="1" source="k6b2F2ODSMGAhE13cN2x-23" target="k6b2F2ODSMGAhE13cN2x-13">
          <mxGeometry relative="1" as="geometry" />
        </mxCell>
        <mxCell id="k6b2F2ODSMGAhE13cN2x-22" value="include" style="edgeLabel;html=1;align=center;verticalAlign=middle;resizable=0;points=[];" vertex="1" connectable="0" parent="k6b2F2ODSMGAhE13cN2x-21">
          <mxGeometry x="-0.0275" relative="1" as="geometry">
            <mxPoint as="offset" />
          </mxGeometry>
        </mxCell>
        <mxCell id="k6b2F2ODSMGAhE13cN2x-23" value="reset receipt" style="ellipse;whiteSpace=wrap;html=1;" vertex="1" parent="1">
          <mxGeometry x="850" y="940" width="140" height="40" as="geometry" />
        </mxCell>
        <mxCell id="k6b2F2ODSMGAhE13cN2x-24" style="edgeStyle=orthogonalEdgeStyle;rounded=0;orthogonalLoop=1;jettySize=auto;html=1;entryX=0.5;entryY=0.5;entryDx=0;entryDy=0;entryPerimeter=0;endArrow=none;endFill=0;" edge="1" parent="1" source="k6b2F2ODSMGAhE13cN2x-19" target="k6b2F2ODSMGAhE13cN2x-4">
          <mxGeometry relative="1" as="geometry" />
        </mxCell>
        <mxCell id="k6b2F2ODSMGAhE13cN2x-25" style="edgeStyle=orthogonalEdgeStyle;rounded=0;orthogonalLoop=1;jettySize=auto;html=1;endArrow=block;endFill=0;dashed=1;dashPattern=8 8;" edge="1" parent="1" source="k6b2F2ODSMGAhE13cN2x-27">
          <mxGeometry relative="1" as="geometry">
            <mxPoint x="980" y="720" as="targetPoint" />
            <Array as="points">
              <mxPoint x="1150" y="750" />
              <mxPoint x="1150" y="720" />
            </Array>
          </mxGeometry>
        </mxCell>
        <mxCell id="k6b2F2ODSMGAhE13cN2x-26" value="include" style="edgeLabel;html=1;align=center;verticalAlign=middle;resizable=0;points=[];" vertex="1" connectable="0" parent="k6b2F2ODSMGAhE13cN2x-25">
          <mxGeometry x="-0.0758" y="-2" relative="1" as="geometry">
            <mxPoint as="offset" />
          </mxGeometry>
        </mxCell>
        <mxCell id="k6b2F2ODSMGAhE13cN2x-27" value="To hand shoes or keys over" style="ellipse;whiteSpace=wrap;html=1;align=center;" vertex="1" parent="1">
          <mxGeometry x="1170" y="715" width="130" height="70" as="geometry" />
        </mxCell>
        <mxCell id="k6b2F2ODSMGAhE13cN2x-28" style="edgeStyle=orthogonalEdgeStyle;rounded=0;orthogonalLoop=1;jettySize=auto;html=1;dashed=1;dashPattern=8 8;endArrow=block;endFill=0;" edge="1" parent="1" source="k6b2F2ODSMGAhE13cN2x-30" target="k6b2F2ODSMGAhE13cN2x-13">
          <mxGeometry relative="1" as="geometry" />
        </mxCell>
        <mxCell id="k6b2F2ODSMGAhE13cN2x-29" value="include" style="edgeLabel;html=1;align=center;verticalAlign=middle;resizable=0;points=[];" vertex="1" connectable="0" parent="k6b2F2ODSMGAhE13cN2x-28">
          <mxGeometry x="-0.0578" y="1" relative="1" as="geometry">
            <mxPoint as="offset" />
          </mxGeometry>
        </mxCell>
        <mxCell id="k6b2F2ODSMGAhE13cN2x-30" value="check statistics" style="ellipse;whiteSpace=wrap;html=1;" vertex="1" parent="1">
          <mxGeometry x="850" y="810" width="140" height="40" as="geometry" />
        </mxCell>
        <mxCell id="k6b2F2ODSMGAhE13cN2x-31" style="edgeStyle=orthogonalEdgeStyle;rounded=0;orthogonalLoop=1;jettySize=auto;html=1;dashed=1;dashPattern=8 8;endArrow=block;endFill=0;" edge="1" parent="1" source="k6b2F2ODSMGAhE13cN2x-33" target="k6b2F2ODSMGAhE13cN2x-13">
          <mxGeometry relative="1" as="geometry" />
        </mxCell>
        <mxCell id="k6b2F2ODSMGAhE13cN2x-32" value="include" style="edgeLabel;html=1;align=center;verticalAlign=middle;resizable=0;points=[];" vertex="1" connectable="0" parent="k6b2F2ODSMGAhE13cN2x-31">
          <mxGeometry x="-0.5859" relative="1" as="geometry">
            <mxPoint as="offset" />
          </mxGeometry>
        </mxCell>
        <mxCell id="k6b2F2ODSMGAhE13cN2x-33" value="add managers" style="ellipse;whiteSpace=wrap;html=1;" vertex="1" parent="1">
          <mxGeometry x="850" y="990" width="140" height="40" as="geometry" />
        </mxCell>
        <mxCell id="k6b2F2ODSMGAhE13cN2x-34" style="edgeStyle=orthogonalEdgeStyle;rounded=0;orthogonalLoop=1;jettySize=auto;html=1;endArrow=none;endFill=0;" edge="1" parent="1" source="k6b2F2ODSMGAhE13cN2x-37">
          <mxGeometry relative="1" as="geometry">
            <mxPoint x="590" y="960" as="targetPoint" />
            <Array as="points">
              <mxPoint x="800" y="1060" />
              <mxPoint x="800" y="960" />
            </Array>
          </mxGeometry>
        </mxCell>
        <mxCell id="k6b2F2ODSMGAhE13cN2x-35" style="edgeStyle=orthogonalEdgeStyle;rounded=0;orthogonalLoop=1;jettySize=auto;html=1;dashed=1;dashPattern=8 8;endArrow=block;endFill=0;" edge="1" parent="1" source="k6b2F2ODSMGAhE13cN2x-37" target="k6b2F2ODSMGAhE13cN2x-13">
          <mxGeometry relative="1" as="geometry" />
        </mxCell>
        <mxCell id="k6b2F2ODSMGAhE13cN2x-36" value="include" style="edgeLabel;html=1;align=center;verticalAlign=middle;resizable=0;points=[];" vertex="1" connectable="0" parent="k6b2F2ODSMGAhE13cN2x-35">
          <mxGeometry x="-0.5116" relative="1" as="geometry">
            <mxPoint as="offset" />
          </mxGeometry>
        </mxCell>
        <mxCell id="k6b2F2ODSMGAhE13cN2x-37" value="delete managers" style="ellipse;whiteSpace=wrap;html=1;" vertex="1" parent="1">
          <mxGeometry x="850" y="1040" width="140" height="40" as="geometry" />
        </mxCell>
        <mxCell id="k6b2F2ODSMGAhE13cN2x-38" style="edgeStyle=orthogonalEdgeStyle;rounded=0;orthogonalLoop=1;jettySize=auto;html=1;endArrow=none;endFill=0;" edge="1" parent="1" source="k6b2F2ODSMGAhE13cN2x-33">
          <mxGeometry relative="1" as="geometry">
            <mxPoint x="590" y="960" as="targetPoint" />
            <Array as="points">
              <mxPoint x="800" y="1010" />
              <mxPoint x="800" y="960" />
            </Array>
          </mxGeometry>
        </mxCell>
        <mxCell id="k6b2F2ODSMGAhE13cN2x-39" style="edgeStyle=orthogonalEdgeStyle;rounded=0;orthogonalLoop=1;jettySize=auto;html=1;entryX=0;entryY=0.5;entryDx=0;entryDy=0;endArrow=none;endFill=0;" edge="1" parent="1" source="k6b2F2ODSMGAhE13cN2x-41" target="k6b2F2ODSMGAhE13cN2x-44">
          <mxGeometry relative="1" as="geometry" />
        </mxCell>
        <mxCell id="k6b2F2ODSMGAhE13cN2x-40" style="rounded=0;orthogonalLoop=1;jettySize=auto;html=1;endArrow=none;endFill=0;" edge="1" parent="1" source="k6b2F2ODSMGAhE13cN2x-41">
          <mxGeometry relative="1" as="geometry">
            <mxPoint x="850" y="830" as="targetPoint" />
          </mxGeometry>
        </mxCell>
        <mxCell id="k6b2F2ODSMGAhE13cN2x-41" value="Commodity" style="shape=umlActor;verticalLabelPosition=bottom;verticalAlign=top;html=1;outlineConnect=0;" vertex="1" parent="1">
          <mxGeometry x="700" y="1060" width="30" height="60" as="geometry" />
        </mxCell>
        <mxCell id="k6b2F2ODSMGAhE13cN2x-42" style="edgeStyle=orthogonalEdgeStyle;rounded=0;orthogonalLoop=1;jettySize=auto;html=1;dashed=1;dashPattern=8 8;endArrow=block;endFill=0;" edge="1" parent="1" source="k6b2F2ODSMGAhE13cN2x-44" target="k6b2F2ODSMGAhE13cN2x-13">
          <mxGeometry relative="1" as="geometry" />
        </mxCell>
        <mxCell id="k6b2F2ODSMGAhE13cN2x-43" value="include" style="edgeLabel;html=1;align=center;verticalAlign=middle;resizable=0;points=[];" vertex="1" connectable="0" parent="k6b2F2ODSMGAhE13cN2x-42">
          <mxGeometry x="-0.4407" y="2" relative="1" as="geometry">
            <mxPoint x="-22" y="2" as="offset" />
          </mxGeometry>
        </mxCell>
        <mxCell id="k6b2F2ODSMGAhE13cN2x-44" value="manage materials" style="ellipse;whiteSpace=wrap;html=1;" vertex="1" parent="1">
          <mxGeometry x="850" y="1120" width="140" height="40" as="geometry" />
        </mxCell>
        <mxCell id="k6b2F2ODSMGAhE13cN2x-45" style="rounded=0;orthogonalLoop=1;jettySize=auto;html=1;" edge="1" parent="1" source="k6b2F2ODSMGAhE13cN2x-8">
          <mxGeometry relative="1" as="geometry">
            <mxPoint x="725" y="970" as="sourcePoint" />
            <mxPoint x="700" y="1060" as="targetPoint" />
          </mxGeometry>
        </mxCell>
        <mxCell id="k6b2F2ODSMGAhE13cN2x-46" style="edgeStyle=orthogonalEdgeStyle;rounded=0;orthogonalLoop=1;jettySize=auto;html=1;entryX=1;entryY=0.5;entryDx=0;entryDy=0;endArrow=none;endFill=0;" edge="1" parent="1" source="k6b2F2ODSMGAhE13cN2x-48" target="k6b2F2ODSMGAhE13cN2x-50">
          <mxGeometry relative="1" as="geometry">
            <Array as="points">
              <mxPoint x="800" y="890" />
              <mxPoint x="800" y="890" />
            </Array>
          </mxGeometry>
        </mxCell>
        <mxCell id="k6b2F2ODSMGAhE13cN2x-47" style="rounded=0;orthogonalLoop=1;jettySize=auto;html=1;entryX=0;entryY=0.5;entryDx=0;entryDy=0;endArrow=none;endFill=0;" edge="1" parent="1" source="k6b2F2ODSMGAhE13cN2x-48" target="k6b2F2ODSMGAhE13cN2x-30">
          <mxGeometry relative="1" as="geometry" />
        </mxCell>
        <mxCell id="k6b2F2ODSMGAhE13cN2x-48" value="Accountent" style="shape=umlActor;verticalLabelPosition=bottom;verticalAlign=top;html=1;outlineConnect=0;" vertex="1" parent="1">
          <mxGeometry x="710" y="860" width="30" height="60" as="geometry" />
        </mxCell>
        <mxCell id="k6b2F2ODSMGAhE13cN2x-49" style="edgeStyle=orthogonalEdgeStyle;rounded=0;orthogonalLoop=1;jettySize=auto;html=1;entryX=0;entryY=0.5;entryDx=0;entryDy=0;endArrow=block;endFill=0;dashed=1;dashPattern=8 8;" edge="1" parent="1" source="k6b2F2ODSMGAhE13cN2x-50" target="k6b2F2ODSMGAhE13cN2x-13">
          <mxGeometry relative="1" as="geometry" />
        </mxCell>
        <mxCell id="k6b2F2ODSMGAhE13cN2x-50" value="count salaries" style="ellipse;whiteSpace=wrap;html=1;" vertex="1" parent="1">
          <mxGeometry x="850" y="870" width="140" height="40" as="geometry" />
        </mxCell>
        <mxCell id="k6b2F2ODSMGAhE13cN2x-51" style="edgeStyle=orthogonalEdgeStyle;rounded=0;orthogonalLoop=1;jettySize=auto;html=1;entryX=1;entryY=0.5;entryDx=0;entryDy=0;endArrow=block;endFill=0;dashed=1;dashPattern=8 8;" edge="1" parent="1" source="k6b2F2ODSMGAhE13cN2x-52" target="k6b2F2ODSMGAhE13cN2x-56">
          <mxGeometry relative="1" as="geometry" />
        </mxCell>
        <mxCell id="k6b2F2ODSMGAhE13cN2x-52" value="make a refund" style="ellipse;whiteSpace=wrap;html=1;" vertex="1" parent="1">
          <mxGeometry x="1170" y="640" width="130" height="40" as="geometry" />
        </mxCell>
        <mxCell id="k6b2F2ODSMGAhE13cN2x-53" style="edgeStyle=orthogonalEdgeStyle;rounded=0;orthogonalLoop=1;jettySize=auto;html=1;entryX=1;entryY=0.5;entryDx=0;entryDy=0;endArrow=block;endFill=0;dashed=1;dashPattern=8 8;" edge="1" parent="1" source="k6b2F2ODSMGAhE13cN2x-55" target="k6b2F2ODSMGAhE13cN2x-56">
          <mxGeometry relative="1" as="geometry" />
        </mxCell>
        <mxCell id="k6b2F2ODSMGAhE13cN2x-54" value="include" style="edgeLabel;html=1;align=center;verticalAlign=middle;resizable=0;points=[];" vertex="1" connectable="0" parent="k6b2F2ODSMGAhE13cN2x-53">
          <mxGeometry x="0.504" relative="1" as="geometry">
            <mxPoint as="offset" />
          </mxGeometry>
        </mxCell>
        <mxCell id="k6b2F2ODSMGAhE13cN2x-55" value="change conditions" style="ellipse;whiteSpace=wrap;html=1;" vertex="1" parent="1">
          <mxGeometry x="1170" y="590" width="130" height="40" as="geometry" />
        </mxCell>
        <mxCell id="k6b2F2ODSMGAhE13cN2x-56" value="agree on terms" style="ellipse;whiteSpace=wrap;html=1;" vertex="1" parent="1">
          <mxGeometry x="850" y="660" width="140" height="40" as="geometry" />
        </mxCell>
        <mxCell id="k6b2F2ODSMGAhE13cN2x-57" style="rounded=0;orthogonalLoop=1;jettySize=auto;html=1;entryX=0.5;entryY=1;entryDx=0;entryDy=0;endArrow=block;endFill=0;" edge="1" parent="1" source="k6b2F2ODSMGAhE13cN2x-59" target="k6b2F2ODSMGAhE13cN2x-27">
          <mxGeometry relative="1" as="geometry" />
        </mxCell>
        <mxCell id="k6b2F2ODSMGAhE13cN2x-58" value="extends" style="edgeLabel;html=1;align=center;verticalAlign=middle;resizable=0;points=[];" vertex="1" connectable="0" parent="k6b2F2ODSMGAhE13cN2x-57">
          <mxGeometry x="0.013" relative="1" as="geometry">
            <mxPoint as="offset" />
          </mxGeometry>
        </mxCell>
        <mxCell id="k6b2F2ODSMGAhE13cN2x-59" value="leave a review" style="ellipse;whiteSpace=wrap;html=1;" vertex="1" parent="1">
          <mxGeometry x="1220" y="860" width="120" height="40" as="geometry" />
        </mxCell>
        <mxCell id="k6b2F2ODSMGAhE13cN2x-60" style="rounded=0;orthogonalLoop=1;jettySize=auto;html=1;exitX=0.5;exitY=0;exitDx=0;exitDy=0;entryX=0.5;entryY=1;entryDx=0;entryDy=0;endArrow=block;endFill=0;" edge="1" parent="1" source="k6b2F2ODSMGAhE13cN2x-62" target="k6b2F2ODSMGAhE13cN2x-27">
          <mxGeometry relative="1" as="geometry" />
        </mxCell>
        <mxCell id="k6b2F2ODSMGAhE13cN2x-61" value="extends" style="edgeLabel;html=1;align=center;verticalAlign=middle;resizable=0;points=[];" vertex="1" connectable="0" parent="k6b2F2ODSMGAhE13cN2x-60">
          <mxGeometry x="-0.0441" y="1" relative="1" as="geometry">
            <mxPoint as="offset" />
          </mxGeometry>
        </mxCell>
        <mxCell id="k6b2F2ODSMGAhE13cN2x-62" value="check feedback" style="ellipse;whiteSpace=wrap;html=1;" vertex="1" parent="1">
          <mxGeometry x="1350" y="860" width="120" height="40" as="geometry" />
        </mxCell>
      </root>
    </mxGraphModel>
  </diagram>
</mxfile>
